<svg id="레이어_1" data-name="레이어 1" xmlns="http://www.w3.org/2000/svg" viewBox="0 0 576 512"><defs><style>.cls-1{fill:#fff;}</style></defs><title>icon_code</title><path class="cls-1" d="M416,160V32H48A48,48,0,0,0,0,80V432a48,48,0,0,0,48,48H528a48,48,0,0,0,48-48V192H448.9C430.3,192,416,177.7,416,160ZM253.8,317.8a20,20,0,0,1,0,28.31A19.55,19.55,0,0,1,239.7,352a19.94,19.94,0,0,1-14.14-5.85l-48-48a20,20,0,0,1,0-28.31l48-48a20,20,0,0,1,28.28,28.31L220,284Zm146.7-48a20,20,0,0,1,0,28.31l-48,48A19.55,19.55,0,0,1,338.4,352a20,20,0,0,1-14.14-34.16L358.1,284l-33.86-33.84a20,20,0,0,1,28.28-28.31ZM448,32V160H576Z"/></svg>