<svg id="레이어_1" data-name="레이어 1" xmlns="http://www.w3.org/2000/svg" viewBox="0 0 576 512"><defs><style>.cls-1{fill:#fff;}</style></defs><title>icon_profile</title><path class="cls-1" d="M512,32H64A64,64,0,0,0,0,96V416a64,64,0,0,0,64,64H512a64,64,0,0,0,64-64V96A64,64,0,0,0,512,32ZM176,128a64,64,0,1,1-64,64A64,64,0,0,1,176,128Zm96,256H80a16,16,0,0,1-16-16,80,80,0,0,1,80-80h64a80,80,0,0,1,80,80A16,16,0,0,1,272,384Zm224-64H368a16,16,0,0,1,0-32H496a16,16,0,0,1,0,32Zm0-64H368a16,16,0,0,1,0-32H496a16,16,0,0,1,0,32Zm0-64H368a16,16,0,0,1,0-32H496a16,16,0,0,1,0,32Z"/></svg>